<svg width="29" height="30" viewBox="0 0 29 30" fill="none" xmlns="http://www.w3.org/2000/svg">
<g clip-path="url(#clip0_42_29)">
<path d="M27.2392 13.2304L16.612 6.8722C16.3491 6.71223 16.048 6.6258 15.7403 6.62194C15.4326 6.61808 15.1295 6.69693 14.8626 6.85025C14.5731 7.01885 14.3334 7.26107 14.1677 7.55231C14.0021 7.84354 13.9165 8.17343 13.9196 8.50845V12.9564L3.75095 6.87051C3.48805 6.71054 3.187 6.62411 2.87928 6.62025C2.57155 6.61639 2.26844 6.69524 2.0016 6.84857C1.71207 7.01717 1.47232 7.25938 1.30669 7.55062C1.14106 7.84186 1.05545 8.17174 1.05856 8.50677V20.9419C1.05535 21.277 1.14091 21.607 1.30654 21.8983C1.47218 22.1897 1.71199 22.432 2.0016 22.6006C2.26844 22.7539 2.57155 22.8328 2.87928 22.8289C3.187 22.8251 3.48805 22.7386 3.75095 22.5787L13.9196 16.49V20.9396C13.916 21.2751 14.0014 21.6056 14.167 21.8974C14.3327 22.1891 14.5727 22.4318 14.8626 22.6006C15.1295 22.7539 15.4326 22.8328 15.7403 22.8289C16.048 22.8251 16.3491 22.7386 16.612 22.5787L27.2392 16.2205C27.4919 16.0622 27.7001 15.8424 27.8445 15.5815C27.9889 15.3207 28.0647 15.0275 28.0647 14.7294C28.0647 14.4313 27.9889 14.138 27.8445 13.8772C27.7001 13.6164 27.4919 13.3965 27.2392 13.2383V13.2304Z" fill="#E1E1E6"/>
</g>
<defs>
<clipPath id="clip0_42_29">
<rect width="28.8089" height="28.8089" fill="white" transform="translate(0.157837 0.319092)"/>
</clipPath>
</defs>
</svg>
