<svg width="30" height="30" viewBox="0 0 30 30" fill="none" xmlns="http://www.w3.org/2000/svg">
<path d="M8.41802 25.0767C8.07255 25.076 7.7332 24.9855 7.43334 24.8139C6.75813 24.4313 6.33838 23.6886 6.33838 22.8823V6.56471C6.33838 5.75614 6.75813 5.01566 7.43334 4.63305C7.74034 4.45661 8.08909 4.36588 8.44315 4.37033C8.79721 4.37479 9.14357 4.47427 9.44603 4.65837L23.3919 13.0062C23.6825 13.1884 23.9221 13.4415 24.0882 13.7417C24.2543 14.0419 24.3414 14.3793 24.3414 14.7224C24.3414 15.0654 24.2543 15.4028 24.0882 15.703C23.9221 16.0032 23.6825 16.2563 23.3919 16.4385L9.44378 24.7886C9.13425 24.9757 8.77972 25.0753 8.41802 25.0767Z" fill="#E1E1E6"/>
</svg>
